<?xml version="1.0" encoding="UTF-8" standalone="no"?>
<!-- Created with Inkscape (http://www.inkscape.org/) -->

<svg
   xmlns:dc="http://purl.org/dc/elements/1.1/"
   xmlns:cc="http://creativecommons.org/ns#"
   xmlns:rdf="http://www.w3.org/1999/02/22-rdf-syntax-ns#"
   xmlns:svg="http://www.w3.org/2000/svg"
   xmlns="http://www.w3.org/2000/svg"
   xmlns:inkscape="http://www.inkscape.org/namespaces/inkscape"
   version="1.1"
   width="273"
   height="480"
   id="svg2">
  <defs
     id="defs4">
    <inkscape:path-effect
       effect="spiro"
       id="path-effect3882" />
    <filter
       x="-0.29055312"
       y="-0.30172822"
       width="1.5811062"
       height="1.6034565"
       color-interpolation-filters="sRGB"
       id="filter3906">
      <feGaussianBlur
         stdDeviation="1.7728664"
         id="feGaussianBlur3908" />
    </filter>
  </defs>
  <metadata
     id="metadata7">
    <rdf:RDF>
      <cc:Work
         rdf:about="">
        <dc:format>image/svg+xml</dc:format>
        <dc:type
           rdf:resource="http://purl.org/dc/dcmitype/StillImage" />
        <dc:title></dc:title>
      </cc:Work>
    </rdf:RDF>
  </metadata>
  <rect
     width="270.85324"
     height="477.62692"
     rx="11.471037"
     ry="13.035234"
     x="1.2544036"
     y="1.3014721"
     id="rect3098"
     style="fill:#ffff00;fill-opacity:0;stroke:#000000;stroke-width:1.98785102;stroke-linecap:round;stroke-linejoin:round;stroke-miterlimit:4;stroke-opacity:1;stroke-dasharray:none;stroke-dashoffset:4.01299999" />
  <rect
     width="271.19293"
     height="328.81528"
     rx="11.485425"
     ry="8.9739189"
     x="0.8133713"
     y="150.26004"
     id="rect3868"
     style="fill:#ff8dff;fill-opacity:0;stroke:#000000;stroke-width:0.99617022;stroke-linecap:round;stroke-linejoin:round;stroke-miterlimit:4;stroke-opacity:1;stroke-dasharray:none;stroke-dashoffset:4.01299999" />
  <rect
     width="254.37288"
     height="131.79662"
     rx="11.6"
     ry="13.1"
     x="9.2203388"
     y="10.847458"
     id="rect3870"
     style="fill:#000000;fill-opacity:1;stroke:#868686;stroke-width:1;stroke-linecap:round;stroke-linejoin:round;stroke-miterlimit:4;stroke-opacity:1;stroke-dasharray:none;stroke-dashoffset:4.01299999" />
  <path
     d="m 143.72882,21.694916 a 7.322035,7.0508486 0 0 1 -14.64407,0 7.322035,7.0508486 0 1 1 14.64407,0 z"
     id="path3872"
     style="fill:#666666;fill-opacity:1;stroke:#cbcbcb;stroke-width:1;stroke-linecap:round;stroke-linejoin:round;stroke-miterlimit:4;stroke-opacity:1;stroke-dasharray:none;stroke-dashoffset:4.01299999" />
  <path
     d="m 143.72882,21.694916 a 7.322035,7.0508486 0 1 1 -14.64407,0 7.322035,7.0508486 0 1 1 14.64407,0 z"
     transform="matrix(1.19616,0,0,1.19616,-26.757555,-4.25567)"
     id="path3874"
     style="fill:#3abc00;fill-opacity:1;stroke:none;filter:url(#filter3906)" />
  <path
     d="m 20.847845,182.63738 c -2.178162,-0.0877 -3.69487,-3.24958 -3.69487,-3.24958 0,0 -5.654498,-7.94355 -6.04856,-9.1073 l 23.791356,0 c -0.21272,2.97186 -2.470315,3.21777 -2.470315,3.21777 l -12.144829,0.0901 3.132953,4.87701 c 0,0 1.548519,2.36445 -1.288169,3.86451 -0.443233,0.23439 -0.874203,0.3237 -1.277566,0.30747 z m 0,-24.86779 c -2.178162,0.0877 -3.69487,3.24958 -3.69487,3.24958 0,0 -5.654498,7.94355 -6.04856,9.1073 l 23.791356,0 c -0.21272,-2.97186 -2.470315,-3.21777 -2.470315,-3.21777 l -12.144829,-0.0901 3.132953,-4.87701 c 0,0 1.548519,-2.36445 -1.288169,-3.86451 -0.443233,-0.23439 -0.874203,-0.3237 -1.277566,-0.30747 z"
     id="path3887"
     style="fill:#000000;fill-opacity:1;stroke:#000000;stroke-width:0.16963534px;stroke-linecap:butt;stroke-linejoin:miter;stroke-opacity:1" />
  <path
     d="m 252.44107,182.63738 c -2.17816,-0.0877 -3.69487,-3.24958 -3.69487,-3.24958 0,0 -5.6545,-7.94355 -6.04856,-9.1073 l 23.79136,0 c -0.21272,2.97186 -2.47032,3.21777 -2.47032,3.21777 l -12.14483,0.0901 3.13295,4.87701 c 0,0 1.54852,2.36445 -1.28816,3.86451 -0.44324,0.23439 -0.87421,0.3237 -1.27757,0.30747 z m 0,-24.86779 c -2.17816,0.0877 -3.69487,3.24958 -3.69487,3.24958 0,0 -5.6545,7.94355 -6.04856,9.1073 l 23.79136,0 c -0.21272,-2.97186 -2.47032,-3.21777 -2.47032,-3.21777 l -12.14483,-0.0901 3.13295,-4.87701 c 0,0 1.54852,-2.36445 -1.28816,-3.86451 -0.44324,-0.23439 -0.87421,-0.3237 -1.27757,-0.30747 z"
     id="path3890"
     style="fill:#000000;fill-opacity:1;stroke:#000000;stroke-width:0.16963534px;stroke-linecap:butt;stroke-linejoin:miter;stroke-opacity:1" />
  <rect
     width="240.27118"
     height="172.47458"
     rx="11.6072"
     ry="9.0192156"
     x="15.18644"
     y="292.88135"
     id="rect3892"
     style="fill:#000000;fill-opacity:1;stroke:none" />
</svg>
