<?xml version="1.0" encoding="UTF-8" standalone="no"?>
<svg
   xmlns:dc="http://purl.org/dc/elements/1.1/"
   xmlns:cc="http://creativecommons.org/ns#"
   xmlns:rdf="http://www.w3.org/1999/02/22-rdf-syntax-ns#"
   xmlns:svg="http://www.w3.org/2000/svg"
   xmlns="http://www.w3.org/2000/svg"
   xmlns:sodipodi="http://sodipodi.sourceforge.net/DTD/sodipodi-0.dtd"
   xmlns:inkscape="http://www.inkscape.org/namespaces/inkscape"
   version="1.1"
   x="0px"
   y="0px"
   width="480px"
   height="480px"
   viewBox="0 0 480 480"
   xml:space="preserve"
   id="svg2"
   inkscape:version="0.48.4 r9939"
   sodipodi:docname="rec.svg"
   inkscape:export-filename="/home/mariano/HTML/Guitar-Effects/img/mic.png"
   inkscape:export-xdpi="9"
   inkscape:export-ydpi="9"><metadata
     id="metadata13"><rdf:RDF><cc:Work
         rdf:about=""><dc:format>image/svg+xml</dc:format><dc:type
           rdf:resource="http://purl.org/dc/dcmitype/StillImage" /><dc:title /></cc:Work></rdf:RDF></metadata><defs
     id="defs11"><filter
       id="filter3766"
       inkscape:label="Soft focus lens"
       inkscape:menu="Image effects"
       inkscape:menu-tooltip="Glowing image content without blurring it"
       height="1"
       y="0"
       width="1"
       x="0"
       color-interpolation-filters="sRGB"><feGaussianBlur
         id="feGaussianBlur3768"
         stdDeviation="21.257874999999999"
         result="result3" /><feComposite
         id="feComposite3770"
         in2="result3"
         operator="arithmetic"
         in="result3"
         k1="3.033707865168541"
         k3="0.5"
         result="result1"
         k2="0.6367041198501866" /><feBlend
         id="feBlend3772"
         in2="result1"
         result="result5"
         mode="screen"
         in="SourceGraphic" /><feBlend
         id="feBlend3774"
         in2="result5"
         mode="darken"
         in="result5"
         result="result6" /><feComposite
         id="feComposite3776"
         in2="SourceGraphic"
         operator="in" /></filter><filter
       id="filter3784"
       inkscape:label="Soft focus lens"
       inkscape:menu="Image effects"
       inkscape:menu-tooltip="Glowing image content without blurring it"
       height="1"
       y="0"
       width="1"
       x="0"
       color-interpolation-filters="sRGB"><feGaussianBlur
         id="feGaussianBlur3786"
         stdDeviation="42.089124999999996"
         result="result3" /><feComposite
         id="feComposite3788"
         in2="result3"
         operator="arithmetic"
         in="result3"
         k1="2.2377622377622366"
         k3="1.0489510489510483"
         result="result1"
         k2="-0.76923076923076827"
         k4="-1.1888111888111883" /><feBlend
         id="feBlend3790"
         in2="result1"
         result="result5"
         mode="screen"
         in="SourceGraphic" /><feBlend
         id="feBlend3792"
         in2="result5"
         mode="darken"
         in="result5"
         result="result6" /><feComposite
         id="feComposite3794"
         in2="SourceGraphic"
         operator="in" /></filter></defs><sodipodi:namedview
     pagecolor="#ffffff"
     bordercolor="#666666"
     borderopacity="1"
     objecttolerance="10"
     gridtolerance="10"
     guidetolerance="10"
     inkscape:pageopacity="0"
     inkscape:pageshadow="2"
     inkscape:window-width="1920"
     inkscape:window-height="1060"
     id="namedview9"
     showgrid="false"
     inkscape:zoom="0.12291667"
     inkscape:cx="-430.43842"
     inkscape:cy="240"
     inkscape:window-x="-4"
     inkscape:window-y="-4"
     inkscape:window-maximized="1"
     inkscape:current-layer="svg2" /><g
     id="g3778"
     transform="matrix(1.0670272,0,0,1.0670272,-16.086528,-16.262724)"><path
       style="fill:#555555;fill-opacity:1;stroke:#000000;stroke-width:8.8500967;stroke-miterlimit:4;stroke-opacity:1;stroke-dasharray:none;filter:url(#filter3766)"
       d="m 307.52222,263.81973 c 0,33.14417 -27.1287,60.27915 -60.28292,60.27915 h -14.47861 c -33.15422,0 -60.28292,-27.13498 -60.28292,-60.27915 V 91.783204 c 0,-33.15423 27.12871,-60.285439 60.28292,-60.285439 h 14.47861 c 33.15422,0 60.28292,27.131209 60.28292,60.285439 V 263.81973 z"
       id="path5"
       inkscape:connector-curvature="0" /><path
       style="fill:#303030;fill-opacity:1;stroke:#000000;stroke-width:10;stroke-miterlimit:4;stroke-opacity:1;stroke-dasharray:none;filter:url(#filter3766)"
       d="m 347.03119,240.21392 h -9.12071 c -5.0199,0 -9.12071,4.1059 -9.12071,9.12071 v 8.15072 c 0,51.15578 -37.77039,92.62289 -88.91802,92.62289 -51.15577,0 -88.66152,-41.46711 -88.66152,-92.62289 v -8.15072 c 0,-5.01481 -4.10081,-9.12071 -9.12071,-9.12071 h -9.12071 c -5.01176,0 -9.12071,4.1059 -9.12071,9.12071 v 8.15072 c 0,59.91109 40.94599,109.54318 97.78223,118.4359 v 37.62483 h -35.02531 c -5.01991,0 -9.12071,4.11099 -9.12071,9.13089 v 18.24142 c 0,5.01074 4.1008,9.12071 9.12071,9.12071 h 106.55383 c 5.01379,0 9.12071,-4.10997 9.12071,-9.12071 v -18.24142 c 0,-5.0199 -4.10692,-9.13089 -9.12071,-9.13089 h -35.04364 v -37.62483 c 56.88509,-8.88458 98.03669,-58.52481 98.03669,-118.4359 v -8.15072 c 0,-5.01481 -4.11099,-9.12071 -9.12071,-9.12071 z"
       id="path7"
       inkscape:connector-curvature="0" /></g><path
     sodipodi:type="arc"
     style="fill:#e50000;fill-opacity:1;fill-rule:nonzero;stroke:#000000;stroke-width:19.91287994;stroke-linecap:square;stroke-linejoin:miter;stroke-miterlimit:4;stroke-opacity:1;stroke-dasharray:none;stroke-dashoffset:8.98170447;filter:url(#filter3784)"
     id="path3782"
     sodipodi:cx="244.57628"
     sodipodi:cy="229.32204"
     sodipodi:rx="223.22034"
     sodipodi:ry="218.13559"
     d="m 467.79662,229.32204 a 223.22034,218.13559 0 1 1 -446.440678,0 223.22034,218.13559 0 1 1 446.440678,0 z"
     transform="matrix(0.36976901,0,0,0.37838833,269.09969,298.75317)" /></svg>