<?xml version="1.0" encoding="UTF-8" standalone="no"?>
<!-- Created with Inkscape (http://www.inkscape.org/) -->
<svg xmlns:dc="http://purl.org/dc/elements/1.1/" xmlns:cc="http://creativecommons.org/ns#" xmlns:rdf="http://www.w3.org/1999/02/22-rdf-syntax-ns#" xmlns:svg="http://www.w3.org/2000/svg" xmlns="http://www.w3.org/2000/svg" xmlns:xlink="http://www.w3.org/1999/xlink" xmlns:sodipodi="http://sodipodi.sourceforge.net/DTD/sodipodi-0.dtd" xmlns:inkscape="http://www.inkscape.org/namespaces/inkscape" width="400" height="400" id="svg4888" version="1.1" inkscape:version="0.48.0 r9654" sodipodi:docname="New document 2">
  <defs id="defs4890">
    <filter color-interpolation-filters="sRGB" inkscape:collect="always" id="filter18306">
      <feGaussianBlur inkscape:collect="always" stdDeviation="0.53768119" id="feGaussianBlur18308"/>
    </filter>
    <linearGradient inkscape:collect="always" xlink:href="#linearGradient15338" id="linearGradient18914" gradientUnits="userSpaceOnUse" gradientTransform="matrix(0.2977727,0,0,0.2977727,-165.08607,-129.51644)" x1="240.48912" y1="-335.64215" x2="259.52292" y2="-316.85837"/>
    <linearGradient id="linearGradient15338">
      <stop id="stop15340" offset="0" style="stop-color:#ececec;stop-opacity:1"/>
      <stop style="stop-color:#e2e2e2;stop-opacity:0.90816325;" offset="0.3888889" id="stop15342"/>
      <stop id="stop15344" offset="1" style="stop-color:#b3b3b3;stop-opacity:1"/>
    </linearGradient>
    <linearGradient inkscape:collect="always" xlink:href="#linearGradient5942" id="linearGradient18916" gradientUnits="userSpaceOnUse" x1="240.48912" y1="-335.64215" x2="259.52292" y2="-316.85837"/>
    <linearGradient id="linearGradient5942">
      <stop style="stop-color:#000000;stop-opacity:1;" offset="0" id="stop5944"/>
      <stop id="stop5950" offset="0.3888889" style="stop-color:#e2e2e2;stop-opacity:0.90816325;"/>
      <stop style="stop-color:#000000;stop-opacity:1;" offset="1" id="stop5946"/>
    </linearGradient>
    <filter color-interpolation-filters="sRGB" inkscape:collect="always" id="filter15304">
      <feGaussianBlur inkscape:collect="always" stdDeviation="0.32982484" id="feGaussianBlur15306"/>
    </filter>
    <radialGradient inkscape:collect="always" xlink:href="#linearGradient4929" id="radialGradient18918" gradientUnits="userSpaceOnUse" gradientTransform="matrix(1.2659048,0.7308705,-0.6475559,1.1215965,-639.77786,-139.51065)" cx="304.16074" cy="-307.52286" fx="304.16074" fy="-307.52286" r="34.045055"/>
    <linearGradient id="linearGradient4929">
      <stop style="stop-color:#0b0b0b;stop-opacity:1;" offset="0" id="stop4931"/>
      <stop style="stop-color:#878787;stop-opacity:1;" offset="1" id="stop4933"/>
    </linearGradient>
    <radialGradient inkscape:collect="always" xlink:href="#linearGradient4929" id="radialGradient18920" gradientUnits="userSpaceOnUse" gradientTransform="matrix(1.2659048,0.7308705,-0.6475559,1.1215965,-639.77786,-139.51065)" cx="304.16074" cy="-307.52286" fx="304.16074" fy="-307.52286" r="34.045055"/>
    <linearGradient id="linearGradient4700">
      <stop style="stop-color:#0b0b0b;stop-opacity:1;" offset="0" id="stop4702"/>
      <stop style="stop-color:#878787;stop-opacity:1;" offset="1" id="stop4704"/>
    </linearGradient>
    <radialGradient inkscape:collect="always" xlink:href="#linearGradient2707" id="radialGradient18922" gradientUnits="userSpaceOnUse" gradientTransform="matrix(1.0196539,0.5886975,-0.5000004,0.8660251,-166.17479,-185.49625)" cx="266.5473" cy="-325.10864" fx="266.5473" fy="-325.10864" r="43.133514"/>
    <linearGradient inkscape:collect="always" id="linearGradient2707">
      <stop style="stop-color:#808080;stop-opacity:1;" offset="0" id="stop2709"/>
      <stop style="stop-color:#808080;stop-opacity:0;" offset="1" id="stop2711"/>
    </linearGradient>
    <linearGradient inkscape:collect="always" xlink:href="#linearGradient4156" id="linearGradient18924" gradientUnits="userSpaceOnUse" x1="241.40979" y1="287.49377" x2="315.47369" y2="367.88477"/>
    <linearGradient inkscape:collect="always" id="linearGradient4156">
      <stop style="stop-color:#ffffff;stop-opacity:1;" offset="0" id="stop4158"/>
      <stop style="stop-color:#ffffff;stop-opacity:0;" offset="1" id="stop4160"/>
    </linearGradient>
    <filter color-interpolation-filters="sRGB" inkscape:collect="always" id="filter6126">
      <feGaussianBlur inkscape:collect="always" stdDeviation="0.53035713" id="feGaussianBlur6128"/>
    </filter>
    <radialGradient inkscape:collect="always" xlink:href="#linearGradient7111" id="radialGradient18926" gradientUnits="userSpaceOnUse" gradientTransform="matrix(-0.5932658,-0.5932658,0.7150464,-0.7150486,243.27022,849.03358)" cx="312.78131" cy="386.57211" fx="312.78131" fy="386.57211" r="53.035713"/>
    <linearGradient id="linearGradient7111">
      <stop style="stop-color:#ffffff;stop-opacity:0.40816328;" offset="0" id="stop7113"/>
      <stop style="stop-color:#ffffff;stop-opacity:0;" offset="1" id="stop7115"/>
    </linearGradient>
    <linearGradient inkscape:collect="always" xlink:href="#linearGradient4148" id="linearGradient18928" gradientUnits="userSpaceOnUse" gradientTransform="matrix(0.08250332,0,0,-0.08250332,242.9761,-333.84228)" x1="255.31609" y1="286.66653" x2="300.26785" y2="338.81863"/>
    <linearGradient inkscape:collect="always" id="linearGradient4148">
      <stop style="stop-color:#ffffff;stop-opacity:1;" offset="0" id="stop4150"/>
      <stop style="stop-color:#ffffff;stop-opacity:0;" offset="1" id="stop4152"/>
    </linearGradient>
    <filter color-interpolation-filters="sRGB" inkscape:collect="always" id="filter11428">
      <feGaussianBlur inkscape:collect="always" stdDeviation="1.2434678" id="feGaussianBlur11430"/>
    </filter>
    <linearGradient inkscape:collect="always" xlink:href="#linearGradient4156" id="linearGradient18930" gradientUnits="userSpaceOnUse" x1="241.40979" y1="287.49377" x2="315.47369" y2="367.88477"/>
    <radialGradient inkscape:collect="always" xlink:href="#linearGradient7111" id="radialGradient18932" gradientUnits="userSpaceOnUse" gradientTransform="matrix(-0.5932658,-0.5932658,0.7150464,-0.7150486,243.27022,849.03358)" cx="312.78131" cy="386.57211" fx="312.78131" fy="386.57211" r="53.035713"/>
    <linearGradient id="linearGradient4750">
      <stop style="stop-color:#ffffff;stop-opacity:0.40816328;" offset="0" id="stop4752"/>
      <stop style="stop-color:#ffffff;stop-opacity:0;" offset="1" id="stop4754"/>
    </linearGradient>
    <linearGradient inkscape:collect="always" xlink:href="#linearGradient4148" id="linearGradient18934" gradientUnits="userSpaceOnUse" gradientTransform="matrix(0.08250332,0,0,-0.08250332,242.9761,-333.84228)" x1="255.31609" y1="286.66653" x2="300.26785" y2="338.81863"/>
    <linearGradient inkscape:collect="always" xlink:href="#linearGradient4156" id="linearGradient18936" gradientUnits="userSpaceOnUse" x1="241.40979" y1="287.49377" x2="315.47369" y2="367.88477"/>
    <radialGradient inkscape:collect="always" xlink:href="#linearGradient7111" id="radialGradient18938" gradientUnits="userSpaceOnUse" gradientTransform="matrix(-0.5932658,-0.5932658,0.7150464,-0.7150486,243.27022,849.03358)" cx="312.78131" cy="386.57211" fx="312.78131" fy="386.57211" r="53.035713"/>
    <linearGradient id="linearGradient4783">
      <stop style="stop-color:#ffffff;stop-opacity:0.40816328;" offset="0" id="stop4785"/>
      <stop style="stop-color:#ffffff;stop-opacity:0;" offset="1" id="stop4787"/>
    </linearGradient>
    <linearGradient inkscape:collect="always" xlink:href="#linearGradient4148" id="linearGradient18940" gradientUnits="userSpaceOnUse" gradientTransform="matrix(0.08250332,0,0,-0.08250332,242.9761,-333.84228)" x1="255.31609" y1="286.66653" x2="300.26785" y2="338.81863"/>
    <linearGradient inkscape:collect="always" xlink:href="#linearGradient4156" id="linearGradient18942" gradientUnits="userSpaceOnUse" x1="241.40979" y1="287.49377" x2="315.47369" y2="367.88477"/>
    <radialGradient inkscape:collect="always" xlink:href="#linearGradient7111" id="radialGradient18944" gradientUnits="userSpaceOnUse" gradientTransform="matrix(-0.5932658,-0.5932658,0.7150464,-0.7150486,243.27022,849.03358)" cx="312.78131" cy="386.57211" fx="312.78131" fy="386.57211" r="53.035713"/>
    <linearGradient id="linearGradient4816">
      <stop style="stop-color:#ffffff;stop-opacity:0.40816328;" offset="0" id="stop4818"/>
      <stop style="stop-color:#ffffff;stop-opacity:0;" offset="1" id="stop4820"/>
    </linearGradient>
    <linearGradient inkscape:collect="always" xlink:href="#linearGradient4148" id="linearGradient18946" gradientUnits="userSpaceOnUse" gradientTransform="matrix(0.08250332,0,0,-0.08250332,242.9761,-333.84228)" x1="255.31609" y1="286.66653" x2="300.26785" y2="338.81863"/>
  </defs>
  <sodipodi:namedview id="base" pagecolor="#ffffff" bordercolor="#666666" borderopacity="1.0" inkscape:pageopacity="0.0" inkscape:pageshadow="2" inkscape:zoom="1" inkscape:cx="375" inkscape:cy="320" inkscape:document-units="px" inkscape:current-layer="layer1" showgrid="false" inkscape:window-width="1680" inkscape:window-height="988" inkscape:window-x="-8" inkscape:window-y="-8" inkscape:window-maximized="1"/>
  <metadata id="metadata4893">
    <rdf:RDF>
      <cc:Work rdf:about="">
        <dc:format>image/svg+xml</dc:format>
        <dc:type rdf:resource="http://purl.org/dc/dcmitype/StillImage"/>
        <dc:title/>
      </cc:Work>
    </rdf:RDF>
  </metadata>
  <g inkscape:label="Layer 1" inkscape:groupmode="layer" id="layer1" transform="translate(0,-652.36218)">
    <g id="g18858" transform="matrix(6.8753224,0,0,6.8753224,663.45919,2518.8365)">
      <g id="g18715" transform="matrix(0.3984131,0,0,0.3984131,-43.9643,-136.8704)">
        <path transform="matrix(0.9837264,0,0,0.9837264,-0.9372567,-4.2657131)" style="fill:#1a1a1a;fill-opacity:1;stroke:none;filter:url(#filter18306)" d="m -57.59375,-315.89312 c -8.47563,0 -16.492985,1.95911 -23.62587,5.45706 -2.420303,-2.82063 -6.009951,-4.62246 -10.015315,-4.62244 -7.282807,0 -13.193255,5.91045 -13.193255,13.19324 0,3.23494 1.17911,6.21088 3.11374,8.5066 -6.30828,8.81013 -10.04742,19.57932 -10.04742,31.23366 0,11.25382 3.45529,21.69723 9.37331,30.33485 -1.53554,2.15655 -2.43963,4.79275 -2.43963,7.63989 0,7.28281 5.910449,13.19326 13.193255,13.19325 3.405698,0 6.518254,-1.31374 8.859701,-3.43474 7.41788,3.86288 15.844721,6.03487 24.781484,6.03487 9.275041,0 17.997686,-2.34401 25.616093,-6.48428 2.372637,2.28531 5.596735,3.69155 9.148605,3.69155 7.282807,0 13.1932521,-5.91045 13.1932521,-13.19326 0,-3.17029 -1.1196091,-6.07022 -2.9853351,-8.34609 5.5558772,-8.4626 8.795501,-18.56331 8.795501,-29.43604 0,-11.39354 -3.5449503,-21.9567 -9.598009,-30.65585 2.349977,-2.38269 3.7878431,-5.6365 3.7878431,-9.24491 0,-7.28281 -5.9104451,-13.19325 -13.1932521,-13.19325 -4.251338,0 -8.019237,2.01057 -10.432619,5.13606 -7.308625,-3.71913 -15.574645,-5.81017 -24.332079,-5.81017 z" id="path18717" inkscape:connector-curvature="0"/>
        <path id="path18719" d="m -57.59375,-314.46875 c -8.251103,0 -16.056071,1.90721 -23,5.3125 -2.35619,-2.74592 -5.85074,-4.50001 -9.75,-4.5 -7.08988,0 -12.84375,5.75388 -12.84375,12.84375 0,3.14924 1.14787,6.04634 3.03125,8.28125 -6.14117,8.57674 -9.78125,19.06065 -9.78125,30.40625 0,10.95569 3.36375,21.12245 9.125,29.53125 -1.49486,2.09942 -2.375,4.66578 -2.375,7.4375 0,7.08988 5.75387,12.84376 12.84375,12.84375 3.31548,0 6.34558,-1.27894 8.625,-3.34375 7.221374,3.76055 15.42498,5.875 24.125,5.875 9.029337,0 17.52091,-2.28191 24.9375,-6.3125 2.309784,2.22477 5.448472,3.59375 8.90625,3.59375 7.089879,0 12.84375,-5.75388 12.84375,-12.84375 0,-3.08631 -1.089949,-5.90941 -2.90625,-8.125 5.408697,-8.23841 8.5625,-18.07155 8.5625,-28.65625 0,-11.09171 -3.451041,-21.37505 -9.34375,-29.84375 2.287725,-2.31957 3.6875,-5.48718 3.6875,-9 0,-7.08988 -5.753871,-12.84375 -12.84375,-12.84375 -4.138717,0 -7.8068,1.95731 -10.15625,5 -7.115014,-3.62061 -15.162059,-5.65625 -23.6875,-5.65625 z" style="fill:url(#linearGradient18914);fill-opacity:1;stroke:none" inkscape:connector-curvature="0"/>
      </g>
      <g id="g18721" transform="matrix(0.41797,0,0,0.41797,-42.83795,-131.74406)">
        <path transform="matrix(1.005796,0,0,1.005796,-310.06614,60.925851)" d="m 294.15642,-321.19275 c 0,23.82198 -19.31153,43.13352 -43.13352,43.13352 -23.82198,0 -43.13351,-19.31154 -43.13351,-43.13352 0,-23.82198 19.31153,-43.13351 43.13351,-43.13351 23.82199,0 43.13352,19.31153 43.13352,43.13351 z" sodipodi:ry="43.133514" sodipodi:rx="43.133514" sodipodi:cy="-321.19275" sodipodi:cx="251.0229" id="path18724" style="fill:#000000;fill-opacity:1;stroke:none" sodipodi:type="arc"/>
        <path sodipodi:type="arc" style="fill:url(#linearGradient18916);fill-opacity:1;stroke:none" id="path18726" sodipodi:cx="251.0229" sodipodi:cy="-321.19275" sodipodi:rx="43.133514" sodipodi:ry="43.133514" d="m 294.15642,-321.19275 c 0,23.82198 -19.31153,43.13352 -43.13352,43.13352 -23.82198,0 -43.13351,-19.31154 -43.13351,-43.13352 0,-23.82198 19.31153,-43.13351 43.13351,-43.13351 23.82199,0 43.13352,19.31153 43.13352,43.13351 z" transform="matrix(0.9815574,0,0,0.9815574,-303.9817,53.140595)"/>
      </g>
      <path id="path18728" d="m -66.91308,-257.40939 c -8.8913,0 -16.1049,7.2136 -16.1049,16.10491 0,8.89131 7.21359,16.1049 16.1049,16.10491 8.89131,0 16.11797,-7.21361 16.11797,-16.10491 0,-8.89131 -7.22666,-16.10491 -16.11797,-16.10491 z m 0,10.04435 c 3.34444,0 6.06057,2.71612 6.06057,6.06056 0,3.34444 -2.71613,6.06057 -6.06057,6.06057 -3.34443,0 -6.0475,-2.71613 -6.0475,-6.06057 0,-3.34444 2.70307,-6.06056 6.0475,-6.06056 z" style="fill:#808080;fill-opacity:1;stroke:none" inkscape:connector-curvature="0"/>
      <g id="g18730" transform="matrix(0.4238571,0,0,0.4238571,-42.49894,-130.2009)">
        <path style="fill:#cccccc;fill-opacity:1;stroke:none;filter:url(#filter15304)" d="m -57.597883,-295.10087 c -18.205499,0 -32.975799,14.77028 -32.975799,32.97579 0,18.20551 14.77029,32.97578 32.975799,32.97579 18.205518,0 33.002537,-14.7703 33.002555,-32.97579 0,-18.20551 -14.797055,-32.97581 -33.002555,-32.97579 z m 0,20.56641 c 6.847952,1e-5 12.409386,5.56144 12.409386,12.40938 0,6.84795 -5.561434,12.40938 -12.409386,12.40938 -6.847933,0 -12.38263,-5.56144 -12.38263,-12.40938 9e-6,-6.84794 5.534697,-12.40938 12.38263,-12.40938 z" id="path18732" transform="matrix(1.0760717,0,0,1.0760717,4.3805519,19.940304)" inkscape:connector-curvature="0"/>
        <path transform="matrix(1.0479927,0,0,1.0479927,2.763636,12.580091)" id="path18734" d="m -57.597883,-295.10087 c -18.205499,0 -32.975799,14.77028 -32.975799,32.97579 0,18.20551 14.77029,32.97578 32.975799,32.97579 18.205518,0 33.002537,-14.7703 33.002555,-32.97579 0,-18.20551 -14.797055,-32.97581 -33.002555,-32.97579 z m 0,20.56641 c 6.847952,1e-5 12.409386,5.56144 12.409386,12.40938 0,6.84795 -5.561434,12.40938 -12.409386,12.40938 -6.847933,0 -12.38263,-5.56144 -12.38263,-12.40938 9e-6,-6.84794 5.534697,-12.40938 12.38263,-12.40938 z" style="fill:url(#radialGradient18918);fill-opacity:1;stroke:none;filter:url(#filter15304)" inkscape:connector-curvature="0"/>
      </g>
      <path style="fill:#cccccc;fill-opacity:1;stroke:none;filter:url(#filter15304)" d="m -57.597883,-295.10087 c -18.205499,0 -32.975799,14.77028 -32.975799,32.97579 0,18.20551 14.77029,32.97578 32.975799,32.97579 18.205518,0 33.002537,-14.7703 33.002555,-32.97579 0,-18.20551 -14.797055,-32.97581 -33.002555,-32.97579 z m 0,20.56641 c 6.847952,1e-5 12.409386,5.56144 12.409386,12.40938 0,6.84795 -5.561434,12.40938 -12.409386,12.40938 -6.847933,0 -12.38263,-5.56144 -12.38263,-12.40938 9e-6,-6.84794 5.534697,-12.40938 12.38263,-12.40938 z" id="path18736" transform="matrix(0.4291687,0,0,0.4291687,-42.19308,-128.80859)" inkscape:connector-curvature="0"/>
      <path id="path18738" d="m -57.597883,-295.10087 c -18.205499,0 -32.975799,14.77028 -32.975799,32.97579 0,18.20551 14.77029,32.97578 32.975799,32.97579 18.205518,0 33.002537,-14.7703 33.002555,-32.97579 0,-18.20551 -14.797055,-32.97581 -33.002555,-32.97579 z m 0,20.56641 c 6.847952,1e-5 12.409386,5.56144 12.409386,12.40938 0,6.84795 -5.561434,12.40938 -12.409386,12.40938 -6.847933,0 -12.38263,-5.56144 -12.38263,-12.40938 9e-6,-6.84794 5.534697,-12.40938 12.38263,-12.40938 z" style="fill:url(#radialGradient18920);fill-opacity:1;stroke:none;filter:url(#filter15304)" transform="matrix(0.41797,0,0,0.41797,-42.83795,-131.74406)" inkscape:connector-curvature="0"/>
      <path transform="matrix(0.3731875,0,0,0.3731875,-176.03184,-127.33596)" d="m 307.06113,-305.98996 c 0,8.20101 -6.64824,14.84924 -14.84925,14.84924 -8.20101,0 -14.84924,-6.64823 -14.84924,-14.84924 0,-8.20101 6.64823,-14.84924 14.84924,-14.84924 8.20101,0 14.84925,6.64823 14.84925,14.84924 z" sodipodi:ry="14.849242" sodipodi:rx="14.849242" sodipodi:cy="-305.98996" sodipodi:cx="292.21188" id="path18740" style="fill:#000000;fill-opacity:1;stroke:none" sodipodi:type="arc"/>
      <path sodipodi:type="arc" style="fill:url(#radialGradient18922);fill-opacity:1;stroke:none" id="path18742" sodipodi:cx="251.0229" sodipodi:cy="-321.19275" sodipodi:rx="43.133514" sodipodi:ry="43.133514" d="m 294.15642,-321.19275 c 0,23.82198 -19.31153,43.13352 -43.13352,43.13352 -23.82198,0 -43.13351,-19.31154 -43.13351,-43.13352 0,-23.82198 19.31153,-43.13351 43.13351,-43.13351 23.82199,0 43.13352,19.31153 43.13352,43.13351 z" transform="matrix(0.1336134,0,0,0.1336134,-100.59593,-198.46416)"/>
      <g transform="matrix(0.1543782,-0.06625075,0.06625075,0.1543782,-96.37052,-180.03075)" id="g18744">
        <path transform="matrix(0.08407569,0,0,-0.08407569,241.59205,-331.53788)" d="m 356.78571,346.11218 c 0,29.29082 -23.74489,53.03572 -53.03571,53.03572 -29.29082,0 -53.03571,-23.7449 -53.03571,-53.03572 0,-29.29081 23.74489,-53.03571 53.03571,-53.03571 29.29082,0 53.03571,23.7449 53.03571,53.03571 z" sodipodi:ry="53.035713" sodipodi:rx="53.035713" sodipodi:cy="346.11218" sodipodi:cx="303.75" id="path18746" style="fill:#999999;fill-opacity:1;stroke:none" sodipodi:type="arc"/>
        <path transform="matrix(0.08287126,0,0,-0.08287126,241.9579,-331.95475)" d="m 356.78571,346.11218 c 0,29.29082 -23.74489,53.03572 -53.03571,53.03572 -29.29082,0 -53.03571,-23.7449 -53.03571,-53.03572 0,-29.29081 23.74489,-53.03571 53.03571,-53.03571 29.29082,0 53.03571,23.7449 53.03571,53.03571 z" sodipodi:ry="53.035713" sodipodi:rx="53.035713" sodipodi:cy="346.11218" sodipodi:cx="303.75" id="path18748" style="fill:url(#linearGradient18924);fill-opacity:1;stroke:none" sodipodi:type="arc"/>
        <path sodipodi:type="arc" style="fill:#ececec;fill-opacity:1;stroke:none;filter:url(#filter6126)" id="path18750" sodipodi:cx="303.75" sodipodi:cy="346.11218" sodipodi:rx="53.035713" sodipodi:ry="53.035713" d="m 356.78571,346.11218 c 0,29.29082 -23.74489,53.03572 -53.03571,53.03572 -29.29082,0 -53.03571,-23.7449 -53.03571,-53.03572 0,-29.29081 23.74489,-53.03571 53.03571,-53.03571 29.29082,0 53.03571,23.7449 53.03571,53.03571 z" transform="matrix(0.07544007,0,0,-0.07544007,244.21512,-334.52677)"/>
        <path transform="matrix(0.07240331,0,0,-0.07240331,245.13754,-335.57783)" d="m 356.78571,346.11218 c 0,29.29082 -23.74489,53.03572 -53.03571,53.03572 -29.29082,0 -53.03571,-23.7449 -53.03571,-53.03572 0,-29.29081 23.74489,-53.03571 53.03571,-53.03571 29.29082,0 53.03571,23.7449 53.03571,53.03571 z" sodipodi:ry="53.035713" sodipodi:rx="53.035713" sodipodi:cy="346.11218" sodipodi:cx="303.75" id="path18752" style="fill:#999999;fill-opacity:1;stroke:none;filter:url(#filter6126)" sodipodi:type="arc"/>
        <path transform="matrix(0.06959533,0,0,-0.06959533,245.99047,-336.54971)" d="m 356.78571,346.11218 c 0,29.29082 -23.74489,53.03572 -53.03571,53.03572 -29.29082,0 -53.03571,-23.7449 -53.03571,-53.03572 0,-29.29081 23.74489,-53.03571 53.03571,-53.03571 29.29082,0 53.03571,23.7449 53.03571,53.03571 z" sodipodi:ry="53.035713" sodipodi:rx="53.035713" sodipodi:cy="346.11218" sodipodi:cx="303.75" id="path18754" style="fill:#000000;fill-opacity:1;stroke:none" sodipodi:type="arc"/>
        <path sodipodi:type="arc" style="fill:url(#radialGradient18926);fill-opacity:1;stroke:none" id="path18756" sodipodi:cx="303.75" sodipodi:cy="346.11218" sodipodi:rx="53.035713" sodipodi:ry="53.035713" d="m 356.78571,346.11218 c 0,29.29082 -23.74489,53.03572 -53.03571,53.03572 -29.29082,0 -53.03571,-23.7449 -53.03571,-53.03572 0,-29.29081 23.74489,-53.03571 53.03571,-53.03571 29.29082,0 53.03571,23.7449 53.03571,53.03571 z" transform="matrix(0.06548313,0,0,-0.06548313,247.34859,-338.14747)"/>
        <path style="opacity:0.31770833;fill:url(#linearGradient18928);fill-opacity:1;stroke:none" d="m 267.04333,-357.16759 c -1.15124,-0.026 -2.26144,-0.63544 -2.8789,-1.70491 -0.66413,-1.15031 -0.57981,-2.52743 0.0997,-3.56933 0.0737,2.29128 1.82495,4.01707 4.00054,3.89087 0.71325,-0.0414 1.38646,-0.27636 1.97411,-0.65554 -0.28134,0.64337 -0.76145,1.205 -1.41577,1.58277 -0.5602,0.32343 -1.17666,0.46974 -1.77969,0.45614 z" id="path18758" inkscape:connector-curvature="0"/>
        <path id="path18760" d="m 402.88499,300.0934 -11.58137,11.58135 13.29545,13.29545 -13.29545,13.28055 11.58137,11.58135 13.28053,-13.29545 13.29545,13.29545 11.58137,-11.58135 -13.28056,-13.28055 13.28056,-13.29545 -11.58137,-11.58135 -13.29545,13.28055 -13.28053,-13.28055 z" style="fill:#1a1a1a;fill-opacity:1;stroke:none;filter:url(#filter11428)" transform="matrix(0.08636059,0,0,-0.08636059,231.22058,-332.62848)" inkscape:connector-curvature="0"/>
        <path style="fill:#b3b3b3;fill-opacity:1;stroke:none" d="m 266.06291,-358.63632 -0.95752,-0.95752 1.09923,-1.09923 -1.09923,-1.098 0.95752,-0.95752 1.098,1.09924 1.09923,-1.09924 0.95752,0.95752 -1.09801,1.098 1.09801,1.09923 -0.95752,0.95752 -1.09923,-1.098 -1.098,1.098 z" id="path18762" inkscape:connector-curvature="0"/>
      </g>
      <g id="g18764" transform="matrix(0.1543782,-0.06625075,0.06625075,0.1543782,-72.13885,-155.79908)">
        <path sodipodi:type="arc" style="fill:#999999;fill-opacity:1;stroke:none" id="path18766" sodipodi:cx="303.75" sodipodi:cy="346.11218" sodipodi:rx="53.035713" sodipodi:ry="53.035713" d="m 356.78571,346.11218 c 0,29.29082 -23.74489,53.03572 -53.03571,53.03572 -29.29082,0 -53.03571,-23.7449 -53.03571,-53.03572 0,-29.29081 23.74489,-53.03571 53.03571,-53.03571 29.29082,0 53.03571,23.7449 53.03571,53.03571 z" transform="matrix(0.08407569,0,0,-0.08407569,241.59205,-331.53788)"/>
        <path sodipodi:type="arc" style="fill:url(#linearGradient18930);fill-opacity:1;stroke:none" id="path18768" sodipodi:cx="303.75" sodipodi:cy="346.11218" sodipodi:rx="53.035713" sodipodi:ry="53.035713" d="m 356.78571,346.11218 c 0,29.29082 -23.74489,53.03572 -53.03571,53.03572 -29.29082,0 -53.03571,-23.7449 -53.03571,-53.03572 0,-29.29081 23.74489,-53.03571 53.03571,-53.03571 29.29082,0 53.03571,23.7449 53.03571,53.03571 z" transform="matrix(0.08287126,0,0,-0.08287126,241.9579,-331.95475)"/>
        <path transform="matrix(0.07544007,0,0,-0.07544007,244.21512,-334.52677)" d="m 356.78571,346.11218 c 0,29.29082 -23.74489,53.03572 -53.03571,53.03572 -29.29082,0 -53.03571,-23.7449 -53.03571,-53.03572 0,-29.29081 23.74489,-53.03571 53.03571,-53.03571 29.29082,0 53.03571,23.7449 53.03571,53.03571 z" sodipodi:ry="53.035713" sodipodi:rx="53.035713" sodipodi:cy="346.11218" sodipodi:cx="303.75" id="path18770" style="fill:#ececec;fill-opacity:1;stroke:none;filter:url(#filter6126)" sodipodi:type="arc"/>
        <path sodipodi:type="arc" style="fill:#999999;fill-opacity:1;stroke:none;filter:url(#filter6126)" id="path18772" sodipodi:cx="303.75" sodipodi:cy="346.11218" sodipodi:rx="53.035713" sodipodi:ry="53.035713" d="m 356.78571,346.11218 c 0,29.29082 -23.74489,53.03572 -53.03571,53.03572 -29.29082,0 -53.03571,-23.7449 -53.03571,-53.03572 0,-29.29081 23.74489,-53.03571 53.03571,-53.03571 29.29082,0 53.03571,23.7449 53.03571,53.03571 z" transform="matrix(0.07240331,0,0,-0.07240331,245.13754,-335.57783)"/>
        <path sodipodi:type="arc" style="fill:#000000;fill-opacity:1;stroke:none" id="path18774" sodipodi:cx="303.75" sodipodi:cy="346.11218" sodipodi:rx="53.035713" sodipodi:ry="53.035713" d="m 356.78571,346.11218 c 0,29.29082 -23.74489,53.03572 -53.03571,53.03572 -29.29082,0 -53.03571,-23.7449 -53.03571,-53.03572 0,-29.29081 23.74489,-53.03571 53.03571,-53.03571 29.29082,0 53.03571,23.7449 53.03571,53.03571 z" transform="matrix(0.06959533,0,0,-0.06959533,245.99047,-336.54971)"/>
        <path transform="matrix(0.06548313,0,0,-0.06548313,247.34859,-338.14747)" d="m 356.78571,346.11218 c 0,29.29082 -23.74489,53.03572 -53.03571,53.03572 -29.29082,0 -53.03571,-23.7449 -53.03571,-53.03572 0,-29.29081 23.74489,-53.03571 53.03571,-53.03571 29.29082,0 53.03571,23.7449 53.03571,53.03571 z" sodipodi:ry="53.035713" sodipodi:rx="53.035713" sodipodi:cy="346.11218" sodipodi:cx="303.75" id="path18776" style="fill:url(#radialGradient18932);fill-opacity:1;stroke:none" sodipodi:type="arc"/>
        <path id="path18778" d="m 267.04333,-357.16759 c -1.15124,-0.026 -2.26144,-0.63544 -2.8789,-1.70491 -0.66413,-1.15031 -0.57981,-2.52743 0.0997,-3.56933 0.0737,2.29128 1.82495,4.01707 4.00054,3.89087 0.71325,-0.0414 1.38646,-0.27636 1.97411,-0.65554 -0.28134,0.64337 -0.76145,1.205 -1.41577,1.58277 -0.5602,0.32343 -1.17666,0.46974 -1.77969,0.45614 z" style="opacity:0.31770833;fill:url(#linearGradient18934);fill-opacity:1;stroke:none" inkscape:connector-curvature="0"/>
        <path transform="matrix(0.08636059,0,0,-0.08636059,231.22058,-332.62848)" style="fill:#1a1a1a;fill-opacity:1;stroke:none;filter:url(#filter11428)" d="m 402.88499,300.0934 -11.58137,11.58135 13.29545,13.29545 -13.29545,13.28055 11.58137,11.58135 13.28053,-13.29545 13.29545,13.29545 11.58137,-11.58135 -13.28056,-13.28055 13.28056,-13.29545 -11.58137,-11.58135 -13.29545,13.28055 -13.28053,-13.28055 z" id="path18780" inkscape:connector-curvature="0"/>
        <path id="path18782" d="m 266.06291,-358.63632 -0.95752,-0.95752 1.09923,-1.09923 -1.09923,-1.098 0.95752,-0.95752 1.098,1.09924 1.09923,-1.09924 0.95752,0.95752 -1.09801,1.098 1.09801,1.09923 -0.95752,0.95752 -1.09923,-1.098 -1.098,1.098 z" style="fill:#b3b3b3;fill-opacity:1;stroke:none" inkscape:connector-curvature="0"/>
      </g>
      <g id="g18784" transform="matrix(0.06625075,0.1543782,-0.1543782,0.06625075,-128.34732,-270.69721)">
        <path sodipodi:type="arc" style="fill:#999999;fill-opacity:1;stroke:none" id="path18786" sodipodi:cx="303.75" sodipodi:cy="346.11218" sodipodi:rx="53.035713" sodipodi:ry="53.035713" d="m 356.78571,346.11218 c 0,29.29082 -23.74489,53.03572 -53.03571,53.03572 -29.29082,0 -53.03571,-23.7449 -53.03571,-53.03572 0,-29.29081 23.74489,-53.03571 53.03571,-53.03571 29.29082,0 53.03571,23.7449 53.03571,53.03571 z" transform="matrix(0.08407569,0,0,-0.08407569,241.59205,-331.53788)"/>
        <path sodipodi:type="arc" style="fill:url(#linearGradient18936);fill-opacity:1;stroke:none" id="path18788" sodipodi:cx="303.75" sodipodi:cy="346.11218" sodipodi:rx="53.035713" sodipodi:ry="53.035713" d="m 356.78571,346.11218 c 0,29.29082 -23.74489,53.03572 -53.03571,53.03572 -29.29082,0 -53.03571,-23.7449 -53.03571,-53.03572 0,-29.29081 23.74489,-53.03571 53.03571,-53.03571 29.29082,0 53.03571,23.7449 53.03571,53.03571 z" transform="matrix(0.08287126,0,0,-0.08287126,241.9579,-331.95475)"/>
        <path transform="matrix(0.07544007,0,0,-0.07544007,244.21512,-334.52677)" d="m 356.78571,346.11218 c 0,29.29082 -23.74489,53.03572 -53.03571,53.03572 -29.29082,0 -53.03571,-23.7449 -53.03571,-53.03572 0,-29.29081 23.74489,-53.03571 53.03571,-53.03571 29.29082,0 53.03571,23.7449 53.03571,53.03571 z" sodipodi:ry="53.035713" sodipodi:rx="53.035713" sodipodi:cy="346.11218" sodipodi:cx="303.75" id="path18790" style="fill:#ececec;fill-opacity:1;stroke:none;filter:url(#filter6126)" sodipodi:type="arc"/>
        <path sodipodi:type="arc" style="fill:#999999;fill-opacity:1;stroke:none;filter:url(#filter6126)" id="path18792" sodipodi:cx="303.75" sodipodi:cy="346.11218" sodipodi:rx="53.035713" sodipodi:ry="53.035713" d="m 356.78571,346.11218 c 0,29.29082 -23.74489,53.03572 -53.03571,53.03572 -29.29082,0 -53.03571,-23.7449 -53.03571,-53.03572 0,-29.29081 23.74489,-53.03571 53.03571,-53.03571 29.29082,0 53.03571,23.7449 53.03571,53.03571 z" transform="matrix(0.07240331,0,0,-0.07240331,245.13754,-335.57783)"/>
        <path sodipodi:type="arc" style="fill:#000000;fill-opacity:1;stroke:none" id="path18794" sodipodi:cx="303.75" sodipodi:cy="346.11218" sodipodi:rx="53.035713" sodipodi:ry="53.035713" d="m 356.78571,346.11218 c 0,29.29082 -23.74489,53.03572 -53.03571,53.03572 -29.29082,0 -53.03571,-23.7449 -53.03571,-53.03572 0,-29.29081 23.74489,-53.03571 53.03571,-53.03571 29.29082,0 53.03571,23.7449 53.03571,53.03571 z" transform="matrix(0.06959533,0,0,-0.06959533,245.99047,-336.54971)"/>
        <path transform="matrix(0.06548313,0,0,-0.06548313,247.34859,-338.14747)" d="m 356.78571,346.11218 c 0,29.29082 -23.74489,53.03572 -53.03571,53.03572 -29.29082,0 -53.03571,-23.7449 -53.03571,-53.03572 0,-29.29081 23.74489,-53.03571 53.03571,-53.03571 29.29082,0 53.03571,23.7449 53.03571,53.03571 z" sodipodi:ry="53.035713" sodipodi:rx="53.035713" sodipodi:cy="346.11218" sodipodi:cx="303.75" id="path18796" style="fill:url(#radialGradient18938);fill-opacity:1;stroke:none" sodipodi:type="arc"/>
        <path id="path18798" d="m 267.04333,-357.16759 c -1.15124,-0.026 -2.26144,-0.63544 -2.8789,-1.70491 -0.66413,-1.15031 -0.57981,-2.52743 0.0997,-3.56933 0.0737,2.29128 1.82495,4.01707 4.00054,3.89087 0.71325,-0.0414 1.38646,-0.27636 1.97411,-0.65554 -0.28134,0.64337 -0.76145,1.205 -1.41577,1.58277 -0.5602,0.32343 -1.17666,0.46974 -1.77969,0.45614 z" style="opacity:0.31770833;fill:url(#linearGradient18940);fill-opacity:1;stroke:none" inkscape:connector-curvature="0"/>
        <path transform="matrix(0.08636059,0,0,-0.08636059,231.22058,-332.62848)" style="fill:#1a1a1a;fill-opacity:1;stroke:none;filter:url(#filter11428)" d="m 402.88499,300.0934 -11.58137,11.58135 13.29545,13.29545 -13.29545,13.28055 11.58137,11.58135 13.28053,-13.29545 13.29545,13.29545 11.58137,-11.58135 -13.28056,-13.28055 13.28056,-13.29545 -11.58137,-11.58135 -13.29545,13.28055 -13.28053,-13.28055 z" id="path18800" inkscape:connector-curvature="0"/>
        <path id="path18802" d="m 266.06291,-358.63632 -0.95752,-0.95752 1.09923,-1.09923 -1.09923,-1.098 0.95752,-0.95752 1.098,1.09924 1.09923,-1.09924 0.95752,0.95752 -1.09801,1.098 1.09801,1.09923 -0.95752,0.95752 -1.09923,-1.098 -1.098,1.098 z" style="fill:#b3b3b3;fill-opacity:1;stroke:none" inkscape:connector-curvature="0"/>
      </g>
      <g transform="matrix(0.06625075,0.1543782,-0.1543782,0.06625075,-152.21141,-246.66555)" id="g18804">
        <path transform="matrix(0.08407569,0,0,-0.08407569,241.59205,-331.53788)" d="m 356.78571,346.11218 c 0,29.29082 -23.74489,53.03572 -53.03571,53.03572 -29.29082,0 -53.03571,-23.7449 -53.03571,-53.03572 0,-29.29081 23.74489,-53.03571 53.03571,-53.03571 29.29082,0 53.03571,23.7449 53.03571,53.03571 z" sodipodi:ry="53.035713" sodipodi:rx="53.035713" sodipodi:cy="346.11218" sodipodi:cx="303.75" id="path18806" style="fill:#999999;fill-opacity:1;stroke:none" sodipodi:type="arc"/>
        <path transform="matrix(0.08287126,0,0,-0.08287126,241.9579,-331.95475)" d="m 356.78571,346.11218 c 0,29.29082 -23.74489,53.03572 -53.03571,53.03572 -29.29082,0 -53.03571,-23.7449 -53.03571,-53.03572 0,-29.29081 23.74489,-53.03571 53.03571,-53.03571 29.29082,0 53.03571,23.7449 53.03571,53.03571 z" sodipodi:ry="53.035713" sodipodi:rx="53.035713" sodipodi:cy="346.11218" sodipodi:cx="303.75" id="path18808" style="fill:url(#linearGradient18942);fill-opacity:1;stroke:none" sodipodi:type="arc"/>
        <path sodipodi:type="arc" style="fill:#ececec;fill-opacity:1;stroke:none;filter:url(#filter6126)" id="path18810" sodipodi:cx="303.75" sodipodi:cy="346.11218" sodipodi:rx="53.035713" sodipodi:ry="53.035713" d="m 356.78571,346.11218 c 0,29.29082 -23.74489,53.03572 -53.03571,53.03572 -29.29082,0 -53.03571,-23.7449 -53.03571,-53.03572 0,-29.29081 23.74489,-53.03571 53.03571,-53.03571 29.29082,0 53.03571,23.7449 53.03571,53.03571 z" transform="matrix(0.07544007,0,0,-0.07544007,244.21512,-334.52677)"/>
        <path transform="matrix(0.07240331,0,0,-0.07240331,245.13754,-335.57783)" d="m 356.78571,346.11218 c 0,29.29082 -23.74489,53.03572 -53.03571,53.03572 -29.29082,0 -53.03571,-23.7449 -53.03571,-53.03572 0,-29.29081 23.74489,-53.03571 53.03571,-53.03571 29.29082,0 53.03571,23.7449 53.03571,53.03571 z" sodipodi:ry="53.035713" sodipodi:rx="53.035713" sodipodi:cy="346.11218" sodipodi:cx="303.75" id="path18812" style="fill:#999999;fill-opacity:1;stroke:none;filter:url(#filter6126)" sodipodi:type="arc"/>
        <path transform="matrix(0.06959533,0,0,-0.06959533,245.99047,-336.54971)" d="m 356.78571,346.11218 c 0,29.29082 -23.74489,53.03572 -53.03571,53.03572 -29.29082,0 -53.03571,-23.7449 -53.03571,-53.03572 0,-29.29081 23.74489,-53.03571 53.03571,-53.03571 29.29082,0 53.03571,23.7449 53.03571,53.03571 z" sodipodi:ry="53.035713" sodipodi:rx="53.035713" sodipodi:cy="346.11218" sodipodi:cx="303.75" id="path18814" style="fill:#000000;fill-opacity:1;stroke:none" sodipodi:type="arc"/>
        <path sodipodi:type="arc" style="fill:url(#radialGradient18944);fill-opacity:1;stroke:none" id="path18816" sodipodi:cx="303.75" sodipodi:cy="346.11218" sodipodi:rx="53.035713" sodipodi:ry="53.035713" d="m 356.78571,346.11218 c 0,29.29082 -23.74489,53.03572 -53.03571,53.03572 -29.29082,0 -53.03571,-23.7449 -53.03571,-53.03572 0,-29.29081 23.74489,-53.03571 53.03571,-53.03571 29.29082,0 53.03571,23.7449 53.03571,53.03571 z" transform="matrix(0.06548313,0,0,-0.06548313,247.34859,-338.14747)"/>
        <path style="opacity:0.31770833;fill:url(#linearGradient18946);fill-opacity:1;stroke:none" d="m 267.04333,-357.16759 c -1.15124,-0.026 -2.26144,-0.63544 -2.8789,-1.70491 -0.66413,-1.15031 -0.57981,-2.52743 0.0997,-3.56933 0.0737,2.29128 1.82495,4.01707 4.00054,3.89087 0.71325,-0.0414 1.38646,-0.27636 1.97411,-0.65554 -0.28134,0.64337 -0.76145,1.205 -1.41577,1.58277 -0.5602,0.32343 -1.17666,0.46974 -1.77969,0.45614 z" id="path18818" inkscape:connector-curvature="0"/>
        <path id="path18820" d="m 402.88499,300.0934 -11.58137,11.58135 13.29545,13.29545 -13.29545,13.28055 11.58137,11.58135 13.28053,-13.29545 13.29545,13.29545 11.58137,-11.58135 -13.28056,-13.28055 13.28056,-13.29545 -11.58137,-11.58135 -13.29545,13.28055 -13.28053,-13.28055 z" style="fill:#1a1a1a;fill-opacity:1;stroke:none;filter:url(#filter11428)" transform="matrix(0.08636059,0,0,-0.08636059,231.22058,-332.62848)" inkscape:connector-curvature="0"/>
        <path style="fill:#b3b3b3;fill-opacity:1;stroke:none" d="m 266.06291,-358.63632 -0.95752,-0.95752 1.09923,-1.09923 -1.09923,-1.098 0.95752,-0.95752 1.098,1.09924 1.09923,-1.09924 0.95752,0.95752 -1.09801,1.098 1.09801,1.09923 -0.95752,0.95752 -1.09923,-1.098 -1.098,1.098 z" id="path18822" inkscape:connector-curvature="0"/>
      </g>
    </g>
  </g>
</svg>